<svg xmlns="http://www.w3.org/2000/svg" xmlns:xlink="http://www.w3.org/1999/xlink" zoomAndPan="magnify" preserveAspectRatio="xMidYMid meet" version="1.0" viewBox="48.4 156.01 272.61 62.99"><defs><g/><clipPath id="739ff99cb8"><path d="M 48.398438 156.007812 L 90 156.007812 L 90 219 L 48.398438 219 Z M 48.398438 156.007812 " clip-rule="nonzero"/></clipPath><clipPath id="f49a9674db"><path d="M 48.398438 156.007812 L 90 156.007812 L 90 204 L 48.398438 204 Z M 48.398438 156.007812 " clip-rule="nonzero"/></clipPath><clipPath id="38a1618050"><path d="M 103 156.007812 L 115.898438 156.007812 L 115.898438 169 L 103 169 Z M 103 156.007812 " clip-rule="nonzero"/></clipPath><clipPath id="85c08b61ec"><path d="M 74 156.007812 L 115.898438 156.007812 L 115.898438 219 L 74 219 Z M 74 156.007812 " clip-rule="nonzero"/></clipPath><clipPath id="ef3a829ed8"><path d="M 74 156.007812 L 115.898438 156.007812 L 115.898438 204 L 74 204 Z M 74 156.007812 " clip-rule="nonzero"/></clipPath></defs><g clip-path="url(#739ff99cb8)"><path fill="#72ffff" d="M 64.519531 159.164062 L 86.308594 180.949219 C 86.746094 181.386719 87.136719 181.867188 87.480469 182.382812 C 87.824219 182.898438 88.117188 183.441406 88.355469 184.015625 C 88.589844 184.585938 88.769531 185.175781 88.890625 185.785156 C 89.011719 186.394531 89.074219 187.007812 89.074219 187.628906 C 89.074219 188.25 89.011719 188.863281 88.890625 189.472656 C 88.769531 190.078125 88.589844 190.671875 88.355469 191.242188 C 88.117188 191.816406 87.824219 192.359375 87.480469 192.875 C 87.136719 193.390625 86.746094 193.867188 86.308594 194.308594 L 64.519531 216.09375 C 58.570312 222.042969 48.394531 217.828125 48.398438 209.410156 L 48.398438 165.835938 C 48.394531 157.429688 58.570312 153.210938 64.519531 159.164062 Z M 64.519531 159.164062 " fill-opacity="1" fill-rule="nonzero"/></g><g clip-path="url(#f49a9674db)"><path fill="#00d7ff" d="M 64.519531 159.164062 C 58.605469 153.246094 48.542969 157.382812 48.402344 165.695312 C 48.402344 165.695312 82.683594 198.132812 77.234375 203.417969 L 86.324219 194.328125 C 86.765625 193.886719 87.15625 193.410156 87.5 192.894531 C 87.84375 192.378906 88.136719 191.835938 88.375 191.261719 C 88.609375 190.691406 88.789062 190.097656 88.910156 189.492188 C 89.03125 188.882812 89.09375 188.269531 89.09375 187.648438 C 89.09375 187.027344 89.03125 186.414062 88.910156 185.804688 C 88.789062 185.195312 88.609375 184.605469 88.375 184.035156 C 88.136719 183.460938 87.84375 182.917969 87.5 182.402344 C 87.15625 181.886719 86.765625 181.40625 86.324219 180.96875 Z M 64.519531 159.164062 " fill-opacity="1" fill-rule="nonzero"/></g><g clip-path="url(#38a1618050)"><path fill="#590696" d="M 116.179688 162.25 C 116.179688 162.65625 116.140625 163.058594 116.058594 163.457031 C 115.980469 163.855469 115.863281 164.238281 115.707031 164.613281 C 115.554688 164.988281 115.363281 165.34375 115.136719 165.679688 C 114.914062 166.019531 114.65625 166.332031 114.371094 166.617188 C 114.085938 166.902344 113.773438 167.160156 113.433594 167.382812 C 113.097656 167.609375 112.742188 167.800781 112.367188 167.953125 C 111.992188 168.109375 111.609375 168.226562 111.210938 168.304688 C 110.8125 168.386719 110.410156 168.425781 110.007812 168.425781 C 109.601562 168.425781 109.199219 168.386719 108.800781 168.304688 C 108.402344 168.226562 108.019531 168.109375 107.644531 167.953125 C 107.269531 167.800781 106.914062 167.609375 106.578125 167.382812 C 106.238281 167.160156 105.925781 166.902344 105.640625 166.617188 C 105.355469 166.332031 105.097656 166.019531 104.875 165.679688 C 104.648438 165.34375 104.457031 164.988281 104.304688 164.613281 C 104.148438 164.238281 104.03125 163.855469 103.953125 163.457031 C 103.871094 163.058594 103.832031 162.65625 103.832031 162.25 C 103.832031 161.847656 103.871094 161.445312 103.953125 161.046875 C 104.03125 160.648438 104.148438 160.265625 104.304688 159.890625 C 104.457031 159.515625 104.648438 159.160156 104.875 158.824219 C 105.097656 158.484375 105.355469 158.171875 105.640625 157.886719 C 105.925781 157.601562 106.238281 157.34375 106.578125 157.121094 C 106.914062 156.894531 107.269531 156.703125 107.644531 156.546875 C 108.019531 156.394531 108.402344 156.277344 108.800781 156.199219 C 109.199219 156.117188 109.601562 156.078125 110.007812 156.078125 C 110.410156 156.078125 110.8125 156.117188 111.210938 156.199219 C 111.609375 156.277344 111.992188 156.394531 112.367188 156.546875 C 112.742188 156.703125 113.097656 156.894531 113.433594 157.121094 C 113.773438 157.34375 114.085938 157.601562 114.371094 157.886719 C 114.65625 158.171875 114.914062 158.484375 115.136719 158.824219 C 115.363281 159.160156 115.554688 159.515625 115.707031 159.890625 C 115.863281 160.265625 115.980469 160.648438 116.058594 161.046875 C 116.140625 161.445312 116.179688 161.847656 116.179688 162.25 Z M 116.179688 162.25 " fill-opacity="1" fill-rule="nonzero"/><path fill="#590696" d="M 116.179688 162.25 C 116.179688 162.65625 116.140625 163.058594 116.058594 163.457031 C 115.980469 163.855469 115.863281 164.238281 115.707031 164.613281 C 115.554688 164.988281 115.363281 165.34375 115.136719 165.679688 C 114.914062 166.019531 114.65625 166.332031 114.371094 166.617188 C 114.085938 166.902344 113.773438 167.160156 113.433594 167.382812 C 113.097656 167.609375 112.742188 167.800781 112.367188 167.953125 C 111.992188 168.109375 111.609375 168.226562 111.210938 168.304688 C 110.8125 168.386719 110.410156 168.425781 110.007812 168.425781 C 109.601562 168.425781 109.199219 168.386719 108.800781 168.304688 C 108.402344 168.226562 108.019531 168.109375 107.644531 167.953125 C 107.269531 167.800781 106.914062 167.609375 106.578125 167.382812 C 106.238281 167.160156 105.925781 166.902344 105.640625 166.617188 C 105.355469 166.332031 105.097656 166.019531 104.875 165.679688 C 104.648438 165.34375 104.457031 164.988281 104.304688 164.613281 C 104.148438 164.238281 104.03125 163.855469 103.953125 163.457031 C 103.871094 163.058594 103.832031 162.65625 103.832031 162.25 C 103.832031 161.847656 103.871094 161.445312 103.953125 161.046875 C 104.03125 160.648438 104.148438 160.265625 104.304688 159.890625 C 104.457031 159.515625 104.648438 159.160156 104.875 158.824219 C 105.097656 158.484375 105.355469 158.171875 105.640625 157.886719 C 105.925781 157.601562 106.238281 157.34375 106.578125 157.121094 C 106.914062 156.894531 107.269531 156.703125 107.644531 156.546875 C 108.019531 156.394531 108.402344 156.277344 108.800781 156.199219 C 109.199219 156.117188 109.601562 156.078125 110.007812 156.078125 C 110.410156 156.078125 110.8125 156.117188 111.210938 156.199219 C 111.609375 156.277344 111.992188 156.394531 112.367188 156.546875 C 112.742188 156.703125 113.097656 156.894531 113.433594 157.121094 C 113.773438 157.34375 114.085938 157.601562 114.371094 157.886719 C 114.65625 158.171875 114.914062 158.484375 115.136719 158.824219 C 115.363281 159.160156 115.554688 159.515625 115.707031 159.890625 C 115.863281 160.265625 115.980469 160.648438 116.058594 161.046875 C 116.140625 161.445312 116.179688 161.847656 116.179688 162.25 Z M 116.179688 162.25 " fill-opacity="1" fill-rule="nonzero"/></g><g clip-path="url(#85c08b61ec)"><path fill="#0096ff" d="M 113.410156 181.003906 L 91.621094 159.214844 C 85.773438 153.363281 70.183594 160.152344 75.519531 165.484375 L 91.1875 181.15625 C 91.625 181.597656 92.015625 182.074219 92.363281 182.589844 C 92.707031 183.105469 92.996094 183.648438 93.234375 184.21875 C 93.472656 184.792969 93.652344 185.382812 93.773438 185.992188 C 93.894531 186.601562 93.953125 187.214844 93.953125 187.835938 C 93.953125 188.453125 93.894531 189.070312 93.773438 189.675781 C 93.652344 190.285156 93.472656 190.875 93.234375 191.449219 C 92.996094 192.019531 92.707031 192.566406 92.363281 193.082031 C 92.015625 193.597656 91.625 194.074219 91.1875 194.511719 L 75.53125 210.171875 C 70.753906 214.941406 85.832031 221.976562 91.621094 216.1875 L 113.410156 194.398438 C 113.851562 193.960938 114.246094 193.484375 114.59375 192.964844 C 114.9375 192.449219 115.230469 191.902344 115.472656 191.328125 C 115.710938 190.753906 115.890625 190.160156 116.011719 189.550781 C 116.132812 188.941406 116.195312 188.324219 116.195312 187.703125 C 116.195312 187.078125 116.132812 186.460938 116.011719 185.851562 C 115.890625 185.242188 115.710938 184.648438 115.472656 184.074219 C 115.230469 183.5 114.9375 182.953125 114.59375 182.4375 C 114.246094 181.917969 113.851562 181.441406 113.410156 181.003906 Z M 113.410156 181.003906 " fill-opacity="1" fill-rule="nonzero"/></g><g clip-path="url(#ef3a829ed8)"><path fill="#5800ff" d="M 113.410156 181.003906 L 91.621094 159.214844 C 85.773438 153.363281 70.183594 160.152344 75.519531 165.484375 L 91.1875 181.15625 C 91.941406 181.914062 92.554688 182.773438 93.015625 183.734375 C 93.480469 184.699219 93.769531 185.710938 93.886719 186.773438 C 99.285156 193.113281 103.773438 199.265625 104.710938 203.101562 L 113.425781 194.386719 C 113.863281 193.945312 114.257812 193.46875 114.601562 192.949219 C 114.949219 192.433594 115.238281 191.886719 115.476562 191.3125 C 115.714844 190.738281 115.894531 190.148438 116.015625 189.539062 C 116.136719 188.929688 116.195312 188.3125 116.195312 187.691406 C 116.195312 187.070312 116.132812 186.453125 116.011719 185.84375 C 115.886719 185.234375 115.707031 184.644531 115.46875 184.070312 C 115.230469 183.496094 114.9375 182.949219 114.589844 182.433594 C 114.242188 181.917969 113.851562 181.441406 113.410156 181.003906 Z M 113.410156 181.003906 " fill-opacity="1" fill-rule="nonzero"/></g><g fill="#231f20" fill-opacity="1"><g transform="translate(122.579653, 199.125705)"><g><path d="M 8.8125 -20.515625 L 8.8125 -13.859375 L 20.484375 -13.859375 L 20.484375 -9.1875 L 8.8125 -9.1875 L 8.8125 0 L 2.984375 0 L 2.984375 -25.203125 L 22.03125 -25.203125 L 22.03125 -20.515625 Z M 8.8125 -20.515625 "/></g></g></g><g fill="#231f20" fill-opacity="1"><g transform="translate(145.583695, 199.125705)"><g><path d="M 21.5625 -9.609375 C 21.5625 -9.535156 21.523438 -9.03125 21.453125 -8.09375 L 6.796875 -8.09375 C 7.066406 -6.894531 7.691406 -5.945312 8.671875 -5.25 C 9.660156 -4.5625 10.882812 -4.21875 12.34375 -4.21875 C 13.351562 -4.21875 14.25 -4.363281 15.03125 -4.65625 C 15.8125 -4.957031 16.535156 -5.429688 17.203125 -6.078125 L 20.203125 -2.84375 C 18.367188 -0.757812 15.703125 0.28125 12.203125 0.28125 C 10.015625 0.28125 8.082031 -0.140625 6.40625 -0.984375 C 4.726562 -1.835938 3.429688 -3.019531 2.515625 -4.53125 C 1.609375 -6.039062 1.15625 -7.757812 1.15625 -9.6875 C 1.15625 -11.582031 1.601562 -13.289062 2.5 -14.8125 C 3.40625 -16.332031 4.640625 -17.519531 6.203125 -18.375 C 7.773438 -19.226562 9.535156 -19.65625 11.484375 -19.65625 C 13.378906 -19.65625 15.09375 -19.242188 16.625 -18.421875 C 18.164062 -17.609375 19.375 -16.441406 20.25 -14.921875 C 21.125 -13.398438 21.5625 -11.628906 21.5625 -9.609375 Z M 11.515625 -15.40625 C 10.242188 -15.40625 9.175781 -15.046875 8.3125 -14.328125 C 7.445312 -13.609375 6.921875 -12.625 6.734375 -11.375 L 16.265625 -11.375 C 16.078125 -12.601562 15.550781 -13.582031 14.6875 -14.3125 C 13.820312 -15.039062 12.765625 -15.40625 11.515625 -15.40625 Z M 11.515625 -15.40625 "/></g></g></g><g fill="#231f20" fill-opacity="1"><g transform="translate(168.299735, 199.125705)"><g><path d="M 21.5625 -9.609375 C 21.5625 -9.535156 21.523438 -9.03125 21.453125 -8.09375 L 6.796875 -8.09375 C 7.066406 -6.894531 7.691406 -5.945312 8.671875 -5.25 C 9.660156 -4.5625 10.882812 -4.21875 12.34375 -4.21875 C 13.351562 -4.21875 14.25 -4.363281 15.03125 -4.65625 C 15.8125 -4.957031 16.535156 -5.429688 17.203125 -6.078125 L 20.203125 -2.84375 C 18.367188 -0.757812 15.703125 0.28125 12.203125 0.28125 C 10.015625 0.28125 8.082031 -0.140625 6.40625 -0.984375 C 4.726562 -1.835938 3.429688 -3.019531 2.515625 -4.53125 C 1.609375 -6.039062 1.15625 -7.757812 1.15625 -9.6875 C 1.15625 -11.582031 1.601562 -13.289062 2.5 -14.8125 C 3.40625 -16.332031 4.640625 -17.519531 6.203125 -18.375 C 7.773438 -19.226562 9.535156 -19.65625 11.484375 -19.65625 C 13.378906 -19.65625 15.09375 -19.242188 16.625 -18.421875 C 18.164062 -17.609375 19.375 -16.441406 20.25 -14.921875 C 21.125 -13.398438 21.5625 -11.628906 21.5625 -9.609375 Z M 11.515625 -15.40625 C 10.242188 -15.40625 9.175781 -15.046875 8.3125 -14.328125 C 7.445312 -13.609375 6.921875 -12.625 6.734375 -11.375 L 16.265625 -11.375 C 16.078125 -12.601562 15.550781 -13.582031 14.6875 -14.3125 C 13.820312 -15.039062 12.765625 -15.40625 11.515625 -15.40625 Z M 11.515625 -15.40625 "/></g></g></g><g fill="#231f20" fill-opacity="1"><g transform="translate(191.015775, 199.125705)"><g><path d="M 22.3125 -26.71875 L 22.3125 0 L 16.953125 0 L 16.953125 -2.234375 C 15.566406 -0.554688 13.550781 0.28125 10.90625 0.28125 C 9.082031 0.28125 7.429688 -0.125 5.953125 -0.9375 C 4.484375 -1.75 3.328125 -2.910156 2.484375 -4.421875 C 1.640625 -5.941406 1.21875 -7.695312 1.21875 -9.6875 C 1.21875 -11.675781 1.640625 -13.425781 2.484375 -14.9375 C 3.328125 -16.445312 4.484375 -17.609375 5.953125 -18.421875 C 7.429688 -19.242188 9.082031 -19.65625 10.90625 -19.65625 C 13.375 -19.65625 15.304688 -18.875 16.703125 -17.3125 L 16.703125 -26.71875 Z M 11.875 -4.3125 C 13.289062 -4.3125 14.46875 -4.796875 15.40625 -5.765625 C 16.34375 -6.742188 16.8125 -8.050781 16.8125 -9.6875 C 16.8125 -11.3125 16.34375 -12.609375 15.40625 -13.578125 C 14.46875 -14.554688 13.289062 -15.046875 11.875 -15.046875 C 10.4375 -15.046875 9.25 -14.554688 8.3125 -13.578125 C 7.375 -12.609375 6.90625 -11.3125 6.90625 -9.6875 C 6.90625 -8.050781 7.375 -6.742188 8.3125 -5.765625 C 9.25 -4.796875 10.4375 -4.3125 11.875 -4.3125 Z M 11.875 -4.3125 "/></g></g></g><g fill="#231f20" fill-opacity="1"><g transform="translate(215.927821, 199.125705)"><g><path d="M 8.203125 -20.453125 L 0.140625 -20.453125 L 0.140625 -25.203125 L 22.109375 -25.203125 L 22.109375 -20.453125 L 14.046875 -20.453125 L 14.046875 0 L 8.203125 0 Z M 8.203125 -20.453125 "/></g></g></g><g fill="#231f20" fill-opacity="1"><g transform="translate(238.175867, 199.125705)"><g><path d="M 7.953125 -16.8125 C 8.628906 -17.75 9.535156 -18.457031 10.671875 -18.9375 C 11.816406 -19.414062 13.128906 -19.65625 14.609375 -19.65625 L 14.609375 -14.46875 C 13.992188 -14.519531 13.578125 -14.546875 13.359375 -14.546875 C 11.742188 -14.546875 10.476562 -14.09375 9.5625 -13.1875 C 8.65625 -12.289062 8.203125 -10.941406 8.203125 -9.140625 L 8.203125 0 L 2.59375 0 L 2.59375 -19.375 L 7.953125 -19.375 Z M 7.953125 -16.8125 "/></g></g></g><g fill="#231f20" fill-opacity="1"><g transform="translate(253.691903, 199.125705)"><g><path d="M 10.40625 -19.65625 C 13.40625 -19.65625 15.707031 -18.941406 17.3125 -17.515625 C 18.925781 -16.085938 19.734375 -13.929688 19.734375 -11.046875 L 19.734375 0 L 14.46875 0 L 14.46875 -2.40625 C 13.414062 -0.613281 11.445312 0.28125 8.5625 0.28125 C 7.082031 0.28125 5.796875 0.03125 4.703125 -0.46875 C 3.609375 -0.96875 2.769531 -1.660156 2.1875 -2.546875 C 1.613281 -3.441406 1.328125 -4.453125 1.328125 -5.578125 C 1.328125 -7.378906 2.003906 -8.796875 3.359375 -9.828125 C 4.722656 -10.859375 6.816406 -11.375 9.640625 -11.375 L 14.109375 -11.375 C 14.109375 -12.601562 13.734375 -13.546875 12.984375 -14.203125 C 12.242188 -14.859375 11.128906 -15.1875 9.640625 -15.1875 C 8.609375 -15.1875 7.59375 -15.023438 6.59375 -14.703125 C 5.601562 -14.378906 4.757812 -13.941406 4.0625 -13.390625 L 2.046875 -17.3125 C 3.109375 -18.0625 4.375 -18.640625 5.84375 -19.046875 C 7.320312 -19.453125 8.84375 -19.65625 10.40625 -19.65625 Z M 9.96875 -3.484375 C 10.925781 -3.484375 11.773438 -3.707031 12.515625 -4.15625 C 13.265625 -4.601562 13.796875 -5.257812 14.109375 -6.125 L 14.109375 -8.09375 L 10.265625 -8.09375 C 7.953125 -8.09375 6.796875 -7.335938 6.796875 -5.828125 C 6.796875 -5.109375 7.078125 -4.535156 7.640625 -4.109375 C 8.210938 -3.691406 8.988281 -3.484375 9.96875 -3.484375 Z M 9.96875 -3.484375 "/></g></g></g><g fill="#231f20" fill-opacity="1"><g transform="translate(275.903945, 199.125705)"><g><path d="M 11.953125 0.28125 C 9.890625 0.28125 8.035156 -0.140625 6.390625 -0.984375 C 4.742188 -1.835938 3.457031 -3.019531 2.53125 -4.53125 C 1.613281 -6.039062 1.15625 -7.757812 1.15625 -9.6875 C 1.15625 -11.601562 1.613281 -13.316406 2.53125 -14.828125 C 3.457031 -16.335938 4.742188 -17.519531 6.390625 -18.375 C 8.035156 -19.226562 9.890625 -19.65625 11.953125 -19.65625 C 13.992188 -19.65625 15.773438 -19.226562 17.296875 -18.375 C 18.816406 -17.519531 19.925781 -16.300781 20.625 -14.71875 L 16.265625 -12.390625 C 15.265625 -14.160156 13.816406 -15.046875 11.921875 -15.046875 C 10.453125 -15.046875 9.238281 -14.566406 8.28125 -13.609375 C 7.320312 -12.648438 6.84375 -11.34375 6.84375 -9.6875 C 6.84375 -8.03125 7.320312 -6.71875 8.28125 -5.75 C 9.238281 -4.789062 10.453125 -4.3125 11.921875 -4.3125 C 13.835938 -4.3125 15.285156 -5.203125 16.265625 -6.984375 L 20.625 -4.609375 C 19.925781 -3.066406 18.816406 -1.863281 17.296875 -1 C 15.773438 -0.144531 13.992188 0.28125 11.953125 0.28125 Z M 11.953125 0.28125 "/></g></g></g><g fill="#231f20" fill-opacity="1"><g transform="translate(297.179986, 199.125705)"><g><path d="M 10.90625 -7.59375 L 8.203125 -4.9375 L 8.203125 0 L 2.59375 0 L 2.59375 -26.71875 L 8.203125 -26.71875 L 8.203125 -11.59375 L 16.421875 -19.375 L 23.109375 -19.375 L 15.046875 -11.15625 L 23.828125 0 L 17.03125 0 Z M 10.90625 -7.59375 "/></g></g></g></svg>